<svg xmlns="http://www.w3.org/2000/svg" width="32" height="32" viewBox="0 0 32 32" fill="none">
  <!-- Dark gradient background -->
  <defs>
    <linearGradient id="grad1" x1="0%" y1="0%" x2="100%" y2="100%">
      <stop offset="0%" style="stop-color:#1f2937;stop-opacity:1" />
      <stop offset="50%" style="stop-color:#374151;stop-opacity:1" />
      <stop offset="100%" style="stop-color:#1f2937;stop-opacity:1" />
    </linearGradient>
    <linearGradient id="brain" x1="0%" y1="0%" x2="100%" y2="100%">
      <stop offset="0%" style="stop-color:#14ffec;stop-opacity:1" />
      <stop offset="100%" style="stop-color:#0891b2;stop-opacity:1" />
    </linearGradient>
  </defs>
  
  <!-- Background circle -->
  <circle cx="16" cy="16" r="15" fill="url(#grad1)" stroke="#374151" stroke-width="1"/>
  
  <!-- Brain/Neural network icon -->
  <g transform="translate(8, 8)">
    <!-- Main brain shape -->
    <path d="M8 2C10.21 2 12 3.79 12 6C12 6.5 11.9 7 11.7 7.4C12.5 8.1 13 9 13 10C13 11.1 12.5 12 11.7 12.6C11.9 13 12 13.5 12 14C12 15.66 10.66 17 9 17H7C5.34 17 4 15.66 4 14C4 13.5 4.1 13 4.3 12.6C3.5 12 3 11.1 3 10C3 9 3.5 8.1 4.3 7.4C4.1 7 4 6.5 4 6C4 3.79 5.79 2 8 2Z" fill="url(#brain)" opacity="0.8"/>
    
    <!-- Neural connections -->
    <circle cx="6" cy="6" r="1" fill="#14ffec" opacity="0.6"/>
    <circle cx="10" cy="8" r="1" fill="#14ffec" opacity="0.6"/>
    <circle cx="8" cy="12" r="1" fill="#14ffec" opacity="0.6"/>
    
    <!-- Connection lines -->
    <line x1="6" y1="6" x2="10" y2="8" stroke="#14ffec" stroke-width="0.5" opacity="0.4"/>
    <line x1="10" y1="8" x2="8" y2="12" stroke="#14ffec" stroke-width="0.5" opacity="0.4"/>
    <line x1="8" y1="12" x2="6" y2="6" stroke="#14ffec" stroke-width="0.5" opacity="0.4"/>
  </g>
</svg>